<?xml version="1.0" encoding="utf-8"?>
<!-- Generator: Adobe Illustrator 15.1.0, SVG Export Plug-In . SVG Version: 6.00 Build 0)  -->
<!DOCTYPE svg PUBLIC "-//W3C//DTD SVG 1.1//EN" "http://www.w3.org/Graphics/SVG/1.1/DTD/svg11.dtd">
<svg version="1.1" id="Layer_1" xmlns="http://www.w3.org/2000/svg" xmlns:xlink="http://www.w3.org/1999/xlink" x="0px" y="0px"
	 width="941.832px" height="363.241px" viewBox="0 0 941.832 363.241" enable-background="new 0 0 941.832 363.241"
	 xml:space="preserve">
<g>
	<g>
		<path fill-rule="evenodd" clip-rule="evenodd" fill="#9D706D" d="M70.128,144.866c-0.723-0.63-1.036-1.731-1.891-2.311
			c-1.977-1.338-5.947-1.816-8.194-0.631c-1.072,0.566-2.044,2.487-2.942,3.783c-0.992,1.43-2.168,2.709-2.521,3.991
			c2.39,0.876,4.061-1.163,6.303-1.05c0.818,0.041,1.466,0.586,2.311,0.63c3.406,0.175,7.103-2.135,10.926-0.63
			C73.846,146.824,71.525,146.088,70.128,144.866z M65.505,146.338c-0.525,1.155-2.733,0.628-3.782,1.261
			C56.95,144.743,65.98,139.942,65.505,146.338z"/>
		<path fill-rule="evenodd" clip-rule="evenodd" fill="#9D706D" d="M257.968,69.226c-4.438-1.689-9.476-0.381-13.027,0.842
			c-5.288,1.819-7.676,3.163-12.187,6.303c-2.131,1.483-4.691,4.237-6.724,4.412c-3.161,0.273-4.576-2.135-6.304-3.782
			c8.261-8.037,22.111-18.786,20.381-37.19c-0.324-3.447-1.723-6.964-3.152-10.084c-1.976-4.314-4.417-9.635-9.455-9.665
			c-0.449,4.87,0.771,9.477,1.051,13.866c0.834,13.116-5.934,19.926-13.657,24.164c-1.52,0.833-4.655,2.565-5.884,2.521
			c-1.197-0.044-3.053-1.479-4.413-2.102c-1.627-0.746-3.208-1.195-4.202-2.311c0.181-1.291,1.935-1.008,2.521-1.892
			c-3.039-2.937-9.341-3.416-14.918-3.151c0.232-1.616,2.475-2.252,2.312-3.572c-2.357,0.699-4.257,1.039-6.513,2.521
			c-1.65,1.084-3.463,3.582-5.043,3.992c-1.056,0.273-2.319-0.085-3.362,0c-4.808,0.389-9.402,1.335-13.657,2.941
			c1.663,0.578,3.162,1.32,4.202,2.521c-4.998,0.922-9.14-1.578-12.606-3.572c-3.559-2.047-6.841-4.58-10.085-6.934
			c-6.812-4.941-12.681-10.563-16.599-17.439c-1.662-2.918-2.266-7.477-7.144-5.463c-1.125,4.021-0.03,7.125,0.84,10.085
			c0.483,1.642,0.616,3.489,1.051,4.833c1.13,3.488,3.784,7.485,5.882,10.716c2.244,3.454,4.709,6.648,7.145,9.455
			c5.306,6.115,11.639,11.165,17.859,15.338c-1.978,3.556-5.105,5.961-10.926,5.673c-8.075-2.322-14.552-13.617-26.474-12.606
			c-3.798,0.323-9.588,2.073-11.767,4.413c-2.655,2.849-4.366,12.877-2.102,16.598c-0.578,0.753-1.242,1.42-2.1,1.892
			c-2.643-2.12-5.775-3.75-8.826-5.463c-6.523-0.155-12.938-2.384-18.279-4.202c-1.842-0.627-4.319-1.818-5.883-1.681
			c-4.909,0.433-3.542,7.235-3.572,12.396c-8.728-1.146-15.875-3.875-25.003-4.621c-3.094,2.807-0.606,8.782,0.63,12.606
			c2.044,6.32,5.031,11.526,8.614,15.758c1.918,2.265,4.46,4.159,5.673,6.515c2.456,4.77,0.242,8.58-2.311,11.766
			c-7.906,5.756-16.693,11.291-26.264,15.338c-3.159,1.336-6.629,3.47-9.875,4.203c-4.438,1.002-8.897-0.178-13.658,0.42
			c-1.033,7.921,3.23,12.151,4.623,19.33c0.923,4.763,0.885,14.004,3.361,16.6c0.995,1.04,4.365,2.215,6.514,2.311
			c1.534,0.067,3.113-0.621,4.832-0.42c3.143,0.369,6.689,2.416,9.875,3.571c3.424,1.241,6.841,2.474,9.875,3.572
			c6.715,2.429,12.514,5.892,18.069,8.824c3.066,1.619,5.974,3.071,8.615,4.833c2.636,1.758,4.585,4.046,7.144,6.304
			c6.325,5.577,16.599,9.954,27.945,7.353c2.297-0.526,4.898-2.521,7.354-2.521c1.408,0,3.561,1.169,5.253,1.681
			c5.613,1.702,11.574,3.045,17.439,3.782c27.927,3.51,50.913-4.206,68.286-14.498c23.555-13.952,40.104-35.628,48.116-64.714
			c-5.402-9.727-14.572-17.504-15.968-31.938c6.555,2.423,12.659,6.436,17.439,10.506c0.583,0.496,1.138,1.457,1.891,1.26
			c-0.143-2.242,0.2-4.003,0.209-6.092c-5.973-5.279-12.314-11.147-19.54-14.919c-2.393-1.248-5.482-2.261-6.304-5.253
			c5.958,0.512,10.943,2.553,16.599,2.731c12.544,0.397,26.213-6.458,27.315-18.279C270.022,79.749,265.626,72.142,257.968,69.226z
			 M73.28,87.927c1.576,0.182,3.571,1.181,5.672,1.681c5.261,1.251,14.176,1.944,16.809,5.253c-2.658,1.451-4.657,3.65-7.773,4.201
			c-7.345,1.3-14.427-4.096-21.642-4.201C64.637,90.69,68.582,87.386,73.28,87.927z M123.707,203.488
			c0.917-4.5,1.383-11.22-0.21-15.339c-2.623,9.073-5.714,17.68-15.969,19.121c7.92-10.248,6.128-32.6-2.942-40.133
			c0.828,5.604,3.571,10.581,2.942,17.02c-1.274,13.06-6.639,24.382-20.17,25.425c-5.057,0.39-12.998,0.869-17.439-0.421
			c-4.866-1.413-10.057-4.489-14.918-6.935c-5.038-2.532-9.966-5.084-14.499-7.143c0.361-0.76,1.621-0.622,2.732-0.631
			c-8.351-0.683-17.235-0.834-20.801-6.304c0.105-1.225,1.314-1.347,1.681-2.311c5.565,1.324,8.83-3.142,13.448-3.782
			c0.975-0.136,2.142,0.277,3.151,0c1.095-0.3,1.665-1.685,2.732-2.312c3.604-2.117,8.353-1.475,12.816-2.731
			c-4.372-2.635-8.952-2.788-13.447-1.05c-2.002,0.773-3.628,2.461-5.673,3.362c-2.565,1.13-5.535,1.448-8.194,2.311
			c-0.794,0.257-1.508,0.857-2.312,1.051c-1.402,0.337-2.934-0.056-4.202,0.42c-1.248,0.468-2.084,1.838-3.362,2.521
			c-1.82,0.973-3.558,1.129-5.463,1.682c-4.101-2.434-1.487-10.322-1.891-15.759c-0.673,0.378-0.24,1.861-0.841,2.312
			c-1.923-4.45-5.702-8.165-5.882-13.657c2.216-1.808,5.508-0.349,8.614-0.841c3.164-0.501,6.886-2.678,10.085-3.151
			c4.036-0.598,6.805,0.966,9.245,3.782c0.51-3.603-2.151-5.118-2.942-6.724c2.466-0.135,3.856-1.938,5.674-2.941
			c2.508-1.388,5.514-2.21,8.194-3.362c2.65-1.139,4.682-2.959,7.354-3.992c-0.085-0.404-0.962-0.018-0.631-0.84
			c3.158-4.057,5.09-9.338,9.666-11.977c6.469,0.101,9.448,4.902,17.859,4.202c6.941-0.578,13.496-0.918,16.81,3.571
			c0.178-0.037,0.198,0.083,0.21,0.211c0.07,0,0.14,0,0.21,0c-2.621-3.596-5.323-8.052-4.413-14.498
			c-4.811,2.615-6.823,7.813-14.918,6.934c-1.075-0.117-2.088-0.689-3.152-0.84c-10.466-1.484-19.947-8.854-25.844-17.229
			c-1.774-2.521-4.552-6.405-4.833-8.825c-0.463-3.994,2.673-7.459,6.093-7.984c3.315-0.509,6.655,1.06,9.245,1.682
			c3.838,0.92,8.207,1.439,12.397,2.521c4.112,1.062,8.288,2.355,11.976,2.941c2.274,0.361,4.751-0.248,6.724,0.42
			c0.637,0.215,0.877,1.16,1.681,1.681c2.686,1.739,7.412,1.711,7.774,5.673c9.123-3.668,22.778-1.632,28.786,3.362
			c8.691,1.218,12.417,8.903,14.288,17.86c0.663,3.176,2.576,7.822,0.84,11.135c-0.629,1.198-1.773,2.475-2.731,3.151
			c-1.05,0.742-2.428,0.639-3.783,1.472c-2.504,1.541-3.677,4.725-3.991,8.614c-0.986,12.181,6.391,22.841,11.135,30.887
			c1.752-0.281,2.19,0.751,3.572,0.841C143.373,197.802,134.518,201.622,123.707,203.488z M173.083,187.31
			c-8.623,1.471-19.601,0.291-25.634-3.361c7.215-1.657,18.761-0.482,27.525-0.421C174.82,185.265,173.458,185.794,173.083,187.31z
			 M212.793,110.408c-2.402,2.769-9.142,4.867-13.026,2.102c-0.473-1.84,1.257-2.826,1.891-4.202
			c0.528-1.146,0.299-2.497,1.26-3.572C207.257,99.881,218.093,104.3,212.793,110.408z M257.127,81.413
			c-1.214,0.973-1.121,2.744-2.521,3.151c-2.705,0.788-6.146-2.293-9.034-1.261c2,1.991,4.43,3.554,5.042,6.934
			c-5.408,0.225-7.822-2.543-13.448-2.101c0.883,1.079,1.999,1.923,1.892,3.991c-3.606,1.191-10.132,3.666-13.237,0.421
			c-0.55,0.571,0.168,2.41-0.63,2.731c-1.7,0.301-1.893-0.908-2.941-1.26c-3.562-1.259-7.972,0.055-10.926-1.472
			c-1.586-0.819-1.559-2.943-3.572-2.731c0.308,1.236,1.813,1.811,2.731,2.731c2.771,2.778,4.813,6.617,5.883,11.136
			c-2.137,0.246-2.277-1.506-3.152-2.521c-2.315-1.022-6.103,0.018-7.983,0c0.111-3.076,3.567-4.447,6.513-3.361
			c-0.369-1.035-2.008-2.612-3.152-3.572c-8.068-1.293-10.063,5.166-15.128,7.564c-1.445-2.856,1.422-4.633,1.051-7.773
			c-2.556,4.125-4.16,9.156-5.883,14.076c-1.734,4.95-3.191,10.109-5.254,14.708c0,0.63,0,1.262,0,1.892
			c-2.33,3.993-3.301,9.337-6.513,12.816c-2.42,2.623-5.151,4.137-8.405,6.514c2.485-0.54,6.281,0.516,8.195,1.892
			c2.698,1.938,3.464,6.438,5.253,10.295c1.958,4.222,5.044,5.806,5.673,11.557c0.981,8.975-2.013,12.982-8.616,14.708
			c-0.188-1.59,0.661-2.142,0.421-3.782c-1.751-0.21-3.06-0.863-4.832-1.051c0.287-1.339-0.991-1.11-1.051-2.102
			c-0.551-5.73,5.705-9.819,3.781-15.548c-1.238-3.689-6.952-5.248-11.976-4.203c1.694,0.564,5.562,2.031,5.252,4.623
			c-0.315,2.64-4.507,1.937-6.933,3.361c-2.587,1.52-4.119,9.628,0.84,9.036c1.585-0.19,2.024-2.271,4.833-2.312
			c-0.228,1.854-1.463,4.38-3.362,4.832c-6.543,1.558-11.944-8.578-7.143-13.237c-4.241,0.886-8.581,2.749-13.868,1.892
			c-0.17-0.04-0.209-0.212-0.42-0.211c2.245,1.773,2.01,6.98,0,8.825c-6.036,1.648-9.288-2.817-9.246-8.614
			c3.342-0.541,2.486,3.117,3.783,4.622c0.772-0.068,1.86,0.18,2.311-0.21c-1-3.902-1.596-8.208-5.883-8.824
			c-3.473-4.051-0.56-7.976,3.151-9.876c1.397-0.715,3.269-1.15,4.203-1.89c1.01-0.804,1.923-3.655,2.941-6.305
			c0.948-2.465,2.072-4.754,2.521-6.514c0.793-3.102,1.057-6.742,1.681-10.084c1.257-6.73,3.748-15.098,2.731-21.012
			c-0.726-4.227-5.357-10.369-10.085-8.195c0.597,0.314,1.52,0.301,2.102,0.631c1.396,2.092,4.85,5.833,3.151,9.455
			c-0.305,0.65-0.977,1.087-1.471,1.891c-0.687,1.117-0.759,2.25-1.261,2.731c-6.18,5.929-6.996-7.203-6.304-13.446
			c-1.794,2.617-3.423,5.4-6.934,6.303c-0.238-4.65,1.964-6.86,3.152-10.086c-4.683-0.059-7.71,3.356-11.346,5.043
			c-0.97-4.051,1.037-6.946,2.101-9.665c-2.135-0.033-3.281,2.741-6.303,2.521c0.267-1.974,1.538-2.944,1.891-4.833
			c-3.007-0.736-5.543,1.842-8.404,1.261c-0.937-3.401,1.225-5.487,2.1-7.774c-3.706-0.813-6.358,2.298-9.665,1.892
			c1.209-4.814,5.263-8.595,10.506-9.245c0.992-0.123,3.066-0.301,4.412,0c1.943,0.435,4.283,3.73,7.144,5.254
			c2.686,1.428,6.135,2.637,8.195,3.991c1.199,0.788,1.941,2.189,2.941,2.731c3.274,1.772,8.468,1.058,10.297-0.84
			c2.19,0.75,1.743,4.139,3.361,5.463c-1.113-10.11,3.333-16.395,8.614-20.802c-4.57,1.071-6.994-1.044-10.295-2.941
			c-12.631-7.26-25.394-16.181-27.945-32.778c0.008-0.763-1.328-0.878-0.631-1.68c2.205,0.068,2.078,2.322,2.942,3.992
			c0.648,1.252,2.333,2.841,3.782,4.412c3.872,4.201,7.786,8.678,12.397,12.186c3.097,2.358,6.736,4.178,9.875,6.514
			c5.932,4.418,17.045,7.465,24.583,2.312c-0.53-1.36-3.285-0.497-3.361-2.312c5.082-0.409,9.551-1.665,12.817-4.201
			c-0.068,0.493-0.333,0.787-0.211,1.471c3.249-0.82,6.949-2.287,11.136-1.471c-0.379,1.792-2.337,2.004-3.362,3.15
			c0.192,0.998,0.977,1.406,1.051,2.522c-5.621,0.052-9.279,2.067-11.767,5.253c2.114-0.314,5.458-0.361,7.563,0
			c0.623,0.998-1.153,1.156-1.05,2.311c3.116-0.15,5.905-2.613,8.825-1.051c1.572-0.878,3.564-1.338,4.622-2.73
			c18.626,2.246,30.831-12.297,31.097-30.257c1.847,5.772,1.109,12.608-1.05,17.229c-1.077,2.306-3.434,4.658-5.253,6.934
			c-5.102,6.385-12.215,12.797-20.801,15.128c1.124,1.258,3.358,1.403,3.362,3.782c-1.53,0.756-3.816-0.453-5.253,0.21
			c4.056,1.759,6.979,4.647,10.927,6.514c0.512-0.413-1.495-0.883-0.631-1.682c5.109,1.519,10.742,4.19,15.969,1.892
			c1.537-0.676,3.241-2.42,4.833-3.572c3.324-2.405,6.281-4.138,10.714-5.883c1.957-0.77,4.222-2.004,6.094-2.102
			c3.94-0.205,7.576,1.968,8.405,5.463c-0.631,0-1.261,0-1.891,0c1.1,1.352,2.502,2.4,2.942,4.413
			C260.313,81.656,258.485,81.3,257.127,81.413z"/>
		<path fill-rule="evenodd" clip-rule="evenodd" fill="#9D706D" d="M139.885,106.626c4.689,4.842,10.442-4.75,5.042-6.513
			C146.44,103.881,143.759,106.866,139.885,106.626z"/>
		<path fill-rule="evenodd" clip-rule="evenodd" fill="#9D706D" d="M207.751,103.685c2.066,3.548-1.577,7.146-5.043,6.514
			C207.426,115.175,213.269,105.378,207.751,103.685z"/>
	</g>
	<g>
		<path fill="#9D706D" d="M62.228,256.629c3.178,0.317,3.827,1.912,1.943,4.787l-2.626,1.042c-0.551,0.52-1.257,0.961-2.117,1.321
			c-0.391,0.485-1.021,0.991-1.893,1.514l-1.327,1.025l-1.309,0.785l-4.229,2.551l-0.77,0.008l-0.827,0.78l-1.545,0.738
			l-1.598,0.787l-3.369,1.339c-1.178,0.335-2.574,1.009-4.188,2.021c-0.508,0.359-1.201,0.624-2.078,0.794l-0.762,0.538
			c-1.223,0.494-2.682,0.928-4.375,1.301l-2.884,1.284l-4.98,2.317c-0.803,1.709-1.286,3.655-1.452,5.837l-0.558,1.017
			c0.891,1.337,2.296,2.668,4.214,3.991c0.77,0.826,1.569,1.474,2.399,1.944l1.596,1.761l0.748,0.28l1.155,1.237l1.685,1.231
			c0.623,0.665,1.494,1.425,2.614,2.278c0.77,0.826,1.223,1.397,1.36,1.716l1.009-0.013l0.182,0.769
			c0.827,0.504,1.603,1.249,2.329,2.234c0.521,0.315,1.091,0.82,1.711,1.519l0.645,1.003l0.974,0.471l1.221,0.993
			c1.091,0.824,2.173,1.979,3.245,3.476l0.97,0.518l1.138,1.477c0.782,0.666,1.634,1.666,2.558,3.002l0.733,0.474
			c0.007,2.019,0.894,3.629,2.661,4.826c-0.049,0.644-0.275,1.302-0.679,1.98l0.182,0.768c-1.25,0.847-2.684,0.961-4.303,0.338
			c-0.532-1.854-1.419-3.463-2.662-4.826l-0.185-0.721c-0.943-0.662-1.802-1.582-2.577-2.759l-0.955-0.711
			c-0.742-1.21-1.828-2.304-3.259-3.281l-0.474-0.717l-1.458-1.041c-0.593-0.634-0.957-1.127-1.089-1.479
			c-1.462-1.008-3.045-2.513-4.751-4.516c-0.766-0.472-1.542-1.198-2.333-2.184l-1.21-0.515c-0.634-0.506-1.257-1.172-1.866-1.999
			l-2.33-2.235l-1.462-0.992l-0.444-0.475c-0.631-0.539-1.423-1.299-2.374-2.282l-0.463-0.235c-0.768-0.855-1.323-1.363-1.662-1.52
			c-0.643,1.706-1.139,3.813-1.489,6.317c-0.175,0.196-0.396,0.793-0.665,1.788c-0.116,1.54-0.373,2.81-0.768,3.809l-0.7,6.068
			c0.903,1.175,1.299,2.503,1.188,3.979c-1.439,1.234-2.954,1.349-4.543,0.341c-0.532-1.853-0.723-3.774-0.572-5.765l-0.227-0.814
			l0.661-1.74c0.039-0.513,0.186-1.188,0.442-2.026c0.41-1.189,0.667-2.459,0.77-3.807l0.276-0.485l0.077-1.011
			c0.626-1.513,1.023-3.362,1.189-5.545l1.203-2.563l0.117-1.541l-1.203-1.235l-1.396-1.234c-0.647-0.346-1.195-0.932-1.645-1.761
			l-1.196-0.709l-0.77,0.01l-0.028-2.789l0.886-1.55c0.847-0.17,1.786-0.519,2.817-1.043l2.058-0.505l0.565-0.487l2.319-0.797
			l0.569-0.536c0.1-1.313,0.467-2.986,1.1-5.014c0.214-0.708,0.359-1.559,0.434-2.555c0.431-1.03,0.616-2.202,0.556-3.517
			l0.299-0.773c0.431-1.03,0.697-2.221,0.799-3.568l0.335-1.256l-0.405-1.005l0.336-1.254c1.206-0.688,2.572-0.96,4.098-0.817
			c0.424,2.85-0.056,5.804-1.441,8.867c-0.103,1.348-0.468,2.779-1.095,4.293l0.229,0.768l-0.419,1.736l-0.569,0.536l0.434,1.244
			l-0.587,0.777c1.402-0.336,2.891-0.948,4.463-1.832l1.269-0.255l1.838-0.791l1.028-0.252l4.915-2.076
			c1.077-0.687,2.467-1.279,4.171-1.78c0.727-0.713,1.609-1.156,2.647-1.33l2.048-1.032c0.902-0.492,1.447-0.915,1.634-1.269
			l1.032-0.303l1.305-0.735l1.081-0.302c0.862-0.812,2.001-1.482,3.419-2.013c0.887-0.715,1.878-1.736,2.972-3.063l1.531-0.549
			l2.257-2.526L62.228,256.629z M18.123,283.161l-0.847,1.02c0.59,1.501,1.118,1.319,1.58-0.549L18.123,283.161z"/>
		<path fill="#9D706D" d="M73.27,290.267c5.081-0.252,7.775,2.236,8.083,7.458c3.212-4.333,5.492-4.615,6.84-0.85
			c-1.404,1.62-3.025,3.981-4.862,7.079c-0.791,0.716-1.513,1.797-2.168,3.248l0.227,0.814c0.87,0.344,1.852,0.509,2.941,0.496
			l1.938-0.842c0.951-0.715,2.279-1.531,3.981-2.449l1.959-1.129l2.381-1.614l1.624-1.126c0.695-0.296,0.866,0.078,0.515,1.125
			c-0.352,1.047-1.465,2.302-3.337,3.767c-5.46,5.673-11.082,7.374-16.868,5.101c-6.616,6.554-12.8,7.428-18.554,2.619
			C55.865,303.728,60.963,295.828,73.27,290.267z M72.764,294.408c-7.688,3.812-11.696,8.922-12.022,15.339l-0.317,1.015
			c3.223,5.222,8.076,4.17,14.558-3.152c-0.282-0.508-0.17-0.926,0.335-1.253c-0.494,0.167-1.064,0.093-1.713-0.221
			C78.812,297.867,78.532,293.958,72.764,294.408z"/>
		<path fill="#9D706D" d="M117.509,294.854c2.214,0.358,3.143,1.856,2.782,4.488l-4.002,3.991c-0.618,0.97-1.532,1.829-2.741,2.58
			l-0.354,0.872l-0.862,0.585l-0.328,0.533c-0.961,0.396-1.578,1.157-1.855,2.283l-0.56-0.235l-1.055,2.514
			c1.256,0.756,2.926,1.121,5.011,1.097l0.554,0.283l6.826-0.657l1.705-0.309l3.082,0.542l3.943-0.046
			c0.148,0.576,0.099,1.233-0.15,1.974l-3.147,0.325l-1.684,0.019c-0.959,0.397-2.095,0.604-3.41,0.617l-1.194,0.544l-1.665-0.222
			c-0.59,0.167-1.734,0.262-3.433,0.281l-1.706,0.309l-5.387,0.061c-0.711-0.344-1.626-0.51-2.748-0.497
			c-1.097-0.757-2.053-1.883-2.867-3.383l1.432-3.671c1.594-1.172,2.919-2.599,3.977-4.278c1.372-0.786,2.419-1.608,3.142-2.465
			c0.721-0.858,1.583-1.565,2.587-2.124c0.204-0.58,0.145-1.059-0.179-1.439c-1.199,0.592-2.646,1.088-4.341,1.493l-6.219,3.438
			l-0.883,0.876c-0.042,0.546-0.02,1.3,0.068,2.26l-3.944,0.045c-0.487-0.764-0.961-1.895-1.424-3.396l1.588-2.568l0.866-0.011
			c1.606-1.334,3.553-2.285,5.839-2.857c1.02-0.781,2.297-1.374,3.834-1.775l0.599-0.296l2.323-0.845l1.993-0.312l2.283-0.315
			L117.509,294.854z M120.684,277.068c2.212-0.026,3.227,1.165,3.044,3.572c-0.824,2.415-2.632,3.429-5.421,3.045
			c-0.936-0.76-1.437-1.956-1.506-3.589C117.518,278.677,118.813,277.667,120.684,277.068z"/>
		<path fill="#9D706D" d="M165.901,276.354c2.245,0.39,3.267,1.918,3.064,4.582c-0.431,1.031-1.151,1.873-2.161,2.525
			c-0.749,2.254-2.177,4.628-4.289,7.12l-0.34,0.678c-0.684,1.419-1.754,2.859-3.21,4.316c-1.071,1.874-2.637,3.735-4.7,5.587
			c-0.658,1.065-1.135,2.307-1.436,3.721l-0.603,0.343l0.172,1.538c-0.892,4.146-0.531,8.264,1.082,12.348
			c1.122,0.405,2.34,0.599,3.655,0.584c0.994-0.428,1.905-1.048,2.736-1.86c1.812-1.079,3.549-2.444,5.212-4.099l2.735-2.485
			l1.896-1.563c2.273-1.244,2.771-0.737,1.494,1.523c-1.276,2.258-2.434,3.908-3.474,4.946c-1.042,1.069-1.963,1.803-2.762,2.195
			l-0.65,0.972c-1.393,1.041-3.186,2.087-5.38,3.139l-0.625,0.633l-1.972,0.021c-7.213,1.752-10.13-2.64-8.755-13.173
			c-5.09,3.746-11.008,5.964-17.754,6.65l-2.746-1.17c-0.725-1.018-1.111-2.249-1.163-3.69c-0.513-0.828-0.82-1.851-0.919-3.068
			l-0.53-0.618l1.158-0.688c0.061-0.802,0.339-1.72,0.833-2.752l3.364-3.164l1.848-1.561c1.005-0.589,1.708-1.206,2.111-1.853
			l1.49-0.642c1.232-1.041,2.769-2.084,4.61-3.133l1.774-1.223c0.979-0.235,2.166-0.682,3.561-1.339
			c1.105,0.211,2.25,0.116,3.433-0.281l0.866-0.01c0.726,0.568,1.648,1.07,2.768,1.507c1.89-2.106,3.336-4.704,4.339-7.795
			l4.105-5.338l0.909-0.588c0.21-0.225,0.434-0.66,0.676-1.307L165.901,276.354z M145.525,295.396
			c-5.513,2.147-10.661,5.831-15.445,11.049c1.043,1.015,1.6,2.339,1.668,3.974c4.438-0.66,8.9-2.67,13.383-6.023
			C151.392,299.993,151.522,296.993,145.525,295.396z M157.689,291.503c1.965-3.103,3.699-5.687,5.201-7.757
			c1.502-2.069,1.379-2.14-0.369-0.21C160.773,285.463,159.162,288.118,157.689,291.503z"/>
		<path fill="#9D706D" d="M202.032,292.818l1.762,0.22c0.634,0.506,1.072,1.271,1.314,2.294c-0.248,1.157-0.767,2.511-1.557,4.058
			l-0.371,1.735l-0.8,2.317c-1.095,3.029-2.221,6.04-3.377,9.035l-1.629,5.021l-2.973,9.413l-5.122,20.646
			c-0.812,3.117-1.479,5.571-1.999,7.355c-0.52,1.787-1.124,4.063-1.815,6.828l-0.643,1.499c-1.186,0.015-1.968-0.65-2.347-1.992
			l1.468-7.954l1.546-7.089l0.615-3.037c0.43-1.031,1.449-4.538,3.056-10.521l0.597-2.796l1.04-3.572
			c0.358-1.352,1.741-5.647,4.148-12.89l1.222-2.804l0.317-1.016l0.318-1.014c0.493-1.864,1.134-3.556,1.922-5.071l0.058-0.771
			l0.856-1.788l0.97-2.657l-0.459-0.283c-2.715,1.154-7.078,4.201-13.09,9.146l-0.281,0.532c-1.634,1.687-3.676,3.057-6.126,4.109
			l-0.276,0.484c-4.444,0.725-6.267-1.851-5.469-7.729c-0.961,1.681-2.347,3.282-4.16,4.811l-1.404,2.036
			c-0.899,0.875-1.737,1.993-2.512,3.348l-0.326,0.484c-0.712,0.522-1.356,1.203-1.933,2.044l-1.75,0.26
			c-0.156-0.479-0.104-1.152,0.153-2.021c0.532-0.681,1.093-1.52,1.681-2.52l0.827-0.78l4.001-5.866l0.296-0.726l2.195-2.333
			l0.539-0.777c0.428-0.998,1.018-2.015,1.769-3.05l0.277-0.484c0.872-0.522,1.786-1.382,2.743-2.58l0.557-1.018
			c1.359-0.176,2.512,0.244,3.46,1.26c-0.307,1.512-0.959,3.361-1.958,5.553c0.058,1.347-0.313,2.874-1.116,4.584l0.394,1.774
			c0.828,0.054,1.953-0.424,3.376-1.436l4.569-3.852l10.465-8.105l1.594-0.74l0.521-0.535l2.367-0.796L202.032,292.818z"/>
		<path fill="#9D706D" d="M244.243,274.677l4.029,1.348l-2.002,13.106l-0.417,1.063c-0.105,1.381-0.467,2.988-1.086,4.822
			l-0.519,2.411l0.256,1.057c8.104-6.765,15.033-8.576,20.785-5.437l-0.183,2.408c-0.759,0.713-1.732,1.301-2.921,1.763
			c-0.727,0.716-1.814,1.546-3.263,2.492l-2.225,2.095c-0.948,0.235-1.911,0.695-2.892,1.38c-1.225,0.943-2.562,1.89-4.011,2.835
			l-1.834,1.369l3.613,2.41c2.067,0.202,4.505-0.068,7.316-0.806l2.768-0.369l8.092-2.161l1.42-0.353l5.842,0.269
			c-0.053,0.707-0.331,1.398-0.83,2.077c-2.155,0.956-4.74,1.676-7.756,2.158c-5.948,2.828-12.817,4.061-20.606,3.701l-4.674-2.351
			l-0.956-0.709c-2.413,1.406-4.972,1.789-7.678,1.146c-0.136-1.153,0.08-2.535,0.651-4.145c2.056-3.038,2.696-5.353,1.92-6.948
			c4.007-7.646,5.437-15.935,4.289-24.869C242.098,275.729,243.055,275.141,244.243,274.677z M256.95,296.56
			c-2.945,0.388-7.098,2.984-12.459,7.792C249.464,301.279,253.618,298.683,256.95,296.56z"/>
		<path fill="#9D706D" d="M287.752,267.344l1.202-0.013c1.719,0.974,2.497,2.551,2.332,4.733c-1.752,1.976-3.063,4.685-3.932,8.127
			c-0.613,0.487-1.313,0.608-2.094,0.36c-0.702,1.228-1.31,2.692-1.823,4.397l-1.713,2.954l-0.457,2.218
			c-0.93,1.711-1.688,3.676-2.272,5.895c-0.687,1.45-1.333,3.415-1.937,5.891c-1.249,6.332,0.679,9.837,5.785,10.515
			c2.217-0.089,4.381-1.172,6.494-3.25c2.118-2.589,3.618-3.785,4.5-3.587c0.881,0.199,1.041,0.847,0.478,1.943l-1.899,2.858
			c-7.585,9.195-13.785,10.277-18.601,3.246l-1.81-4.02c0.296-0.965,0.197-2.182-0.3-3.652c0.056-0.737,0.303-1.462,0.742-2.173
			c0.577-4.654,2.036-9.322,4.377-13.999l0.081-1.061l1.352-2.611l1.162-3.285l2.086-4.063l1.739-3.29
			c0.528-1.482,1.243-3.076,2.141-4.787l0.113-1.493L287.752,267.344z"/>
		<path fill="#9D706D" d="M302.944,299.491l0.577-0.008c0.979,0.181,1.72,0.767,2.221,1.755c-0.343,1.991-1.212,4.376-2.608,7.148
			c0.504,1.373,0.785,2.957,0.841,4.751c-4.334,2.231-6.438,1.263-6.314-2.908c0.921-1.582,1.657-3.466,2.207-5.653l0.669-0.585
			l-0.224-1.486C300.997,301.501,301.875,300.497,302.944,299.491z M319.4,277.655c1.556,0.175,2.763,1.155,3.621,2.939
			c-0.105,1.382-0.907,2.867-2.404,4.454l-0.712,1.789l-0.892-0.28C315.992,282.04,316.122,279.072,319.4,277.655z"/>
		<path fill="#9D706D" d="M331.833,283.477c1.285,0.369,2.761,0.545,4.429,0.525l1.621,0.799c0.282,0.927,0.455,2.239,0.518,3.939
			c-5.433,7.854-12.974,14.162-22.625,18.923c0.272,1.472,1.11,2.664,2.515,3.579c1.803,0.717,3.767,0.597,5.89-0.357l0.556,0.282
			l4.592-2.266l0.909-0.588l1.746-0.839l0.861-0.586l2.958-2.247c1.166-0.591,2.527-1.44,4.085-2.548
			c1.03-0.91,2.078-1.643,3.146-2.202c1.762-0.854,2.36-0.509,1.796,1.038l-2.524,2.868c-2.204,2.013-3.984,3.315-5.342,3.908
			l-3.557,2.544c-0.175,0.192-0.557,0.374-1.146,0.541c-0.974,0.589-1.651,1.062-2.03,1.419c-1.138,0.206-2.501,0.879-4.092,2.02
			c-1.283,0.016-2.69,0.4-4.22,1.154l-5.05,0.059l-1.355-0.514c-8.155-7.344-4.625-17.147,10.591-29.412
			c1.315-0.017,2.479-0.593,3.494-1.726l0.797,0.279L331.833,283.477z M331.514,287.664c-7.032,2.327-11.959,7.322-14.782,14.985
			c2.847-0.802,5.572-2.517,8.174-5.144c3.682-2.095,6.431-5.19,8.247-9.283L331.514,287.664z"/>
		<path fill="#9D706D" d="M350.417,293.073c0.88,0.215,1.408,0.642,1.584,1.281c-0.327,1.35-0.989,2.688-1.985,4.015l-3.636,8.651
			l0.26,1.007l-0.75,1.02l0.625,0.618c3.725-2.224,7.303-5.68,10.733-10.37l1.449-1.364l-0.161-2.305
			c1.382-0.914,2.963-1.493,4.744-1.738c1.295,0.658,2.109,1.754,2.441,3.288c-4.962,7.146-4.685,12.128,0.836,14.95
			c1.573-0.467,3.361-1.031,5.366-1.697l1.801-0.936l4.152-2.163c1.929-1.37,3.464-2.814,4.605-4.336
			c1.225-1.358,1.603-1.283,1.136,0.229c-0.758,1.965-1.601,3.465-2.529,4.502c-0.927,1.037-2.424,2.288-4.489,3.755l-3.963,2.211
			c-8.707,4.975-14.045,2.936-16.018-6.115c-8.572,8.275-13.563,10.097-14.974,5.464
			C341.301,305.766,344.224,299.109,350.417,293.073z"/>
		<path fill="#9D706D" d="M398.264,263.371l1.059-0.012c0.838,0.344,1.137,1.046,0.897,2.106c-1.005,1.424-1.836,3.101-2.496,5.031
			c-0.566,0.713-1.079,1.761-1.536,3.145l-0.919,1.356l-0.847,4.194l-1.299,3.191l0.208,1.055l-0.405,1.544l1.813,0.797
			c1.965-0.568,3.902-0.768,5.812-0.598l1.098-0.541c0.692,0.152,1.734,0.141,3.126-0.036l1.893-0.263
			c-0.199,0.099,0.771-0.023,2.911-0.37c1.411-0.017,2.416,0.661,3.018,2.033l-1.427,1.074l-5.268,0.398l-1.898,0.311l-7.926,0.621
			c-0.526,0.168-1.221,0.255-2.086,0.264l-1.935,0.792l-0.94,6.072l0.2,0.527l-0.321,1.062l-0.138,1.828l-0.749,2.895
			c-0.053,0.708-0.164,1.542-0.334,2.506c-0.169,0.964-0.533,2.604-1.094,4.919c-0.245,0.707-0.462,1.239-0.65,1.595l-1.196,1.841
			l-1.868,0.551l-0.738-1.049c0.649-1.386,1.208-3.686,1.677-6.897c1.011-1.937,1.44-4.218,1.288-6.846
			c0.444-1.223,0.714-2.445,0.807-3.664l0.281-3.707l0.339-1.304c-3.221,1.064-5.172,1.472-5.859,1.223
			c-0.686-0.249-1.226-1.156-1.619-2.723c0.525-0.166,1.094-0.702,1.707-1.607c1.758-0.372,2.976-0.387,3.655-0.042l1.364-0.256
			l0.77-0.008l0.81-0.54l-0.103-1.827l2.795-8.978l0.281-0.532l0.08-1.06c0.208-0.194,0.33-0.55,0.369-1.063
			c0.172-0.162,0.562-0.872,1.17-2.13l0.369-1.063l0.316-1.013l1.259-2.659C396.731,264.994,397.49,264.279,398.264,263.371z"/>
		<path fill="#9D706D" d="M442.656,295.037l3.174-0.037l0.531,1.245c-0.396,1.416-1.276,2.883-2.641,4.406
			c-0.493,1.001-0.941,2.271-1.347,3.816l-0.221,0.386l-0.673,0.635c-0.085,1.122-0.459,2.249-1.121,3.38
			c-0.211,1.093-0.58,2.348-1.103,3.763l-0.287,1.255l-0.351,1.447l-0.896,3.569l-0.062,0.818l-0.272,1.061l-0.656,2.942
			l-0.272,1.061l-0.287,1.255l-0.844,2.896c-0.353,0.839-0.651,2.028-0.896,3.57l-1.104,3.139l-0.306,1.495l-0.316,1.639
			c-0.332,0.582-0.525,1.225-0.578,1.931l-0.496,0.824l-0.062,0.818l-0.433,0.63c-0.245,1.125-0.756,2.173-1.536,3.144l-0.513,1.69
			c-6.449,7.737-10.543,4.931-12.287-8.421c0.362-1.383,0.622-3.117,0.779-5.203c0.503-1.127,0.956-2.464,1.362-4.007l0.706-1.067
			l4.495-9.863l1.153-1.264l1.874-2.523l2.275-0.221c-0.095,1.254-0.538,2.653-1.328,4.201l-0.048,0.627
			c-0.916,1.102-1.64,2.424-2.174,3.969c-0.471,0.71-0.887,1.549-1.249,2.516l-0.673,0.633l-0.8,2.317l-0.481,0.632
			c-0.063,0.834-0.341,1.752-0.833,2.75l-0.302,1.447l-0.288,0.629c-0.054,0.706-0.24,1.477-0.56,2.314
			c0.002,1.668,0.26,3.749,0.776,6.244l-0.063,0.818c0.45,1.245,1.258,2.423,2.422,3.532c1.986-2.109,3.518-4.771,4.594-7.99
			l0.417-0.438c0.276-1.511,0.829-3.311,1.661-5.406l0.335-1.255l0.065-0.866l0.48-0.631l0.254-0.82l0.689-3.375
			c0.32-0.838,0.516-1.738,0.589-2.702l0.335-1.253c0.192-0.835,0.333-1.43,0.424-1.784c0.091-0.354,0.191-0.74,0.303-1.158
			s0.248-0.836,0.407-1.255c0.191-0.835,0.33-1.815,0.415-2.94c0.352-0.835,0.543-1.464,0.576-1.881l0.542-1.449l0.095-1.252
			l2.416-7.146c0.181-0.707,0.582-1.546,1.199-2.516l0.896-3.569l0.702-1.017l0.094-1.254L442.656,295.037z M450.696,273.925
			l3.419,4.336c-0.502,1.131-0.961,2.53-1.375,4.201l-0.287,1.254l-0.303,0.82c-1.936,0.185-2.702-1.538-2.298-5.166
			c-0.793-0.536-1.204-1.445-1.234-2.729C448.827,275.55,449.52,274.644,450.696,273.925z M450.889,273.923l3.066,3.283
			C454.113,275.119,453.091,274.024,450.889,273.923z"/>
		<path fill="#9D706D" d="M470.271,281.875c1.285,0.369,2.761,0.546,4.429,0.525l1.62,0.8c0.282,0.927,0.455,2.239,0.518,3.938
			c-5.432,7.855-12.974,14.163-22.624,18.924c0.272,1.473,1.111,2.665,2.515,3.579c1.803,0.716,3.766,0.598,5.889-0.357l0.555,0.283
			l4.593-2.268l0.909-0.588l1.746-0.837l0.862-0.587l2.957-2.246c1.166-0.592,2.526-1.44,4.086-2.55
			c1.029-0.909,2.078-1.642,3.146-2.199c1.762-0.855,2.36-0.509,1.796,1.036l-2.524,2.868c-2.203,2.014-3.985,3.316-5.343,3.909
			l-3.557,2.543c-0.174,0.193-0.556,0.374-1.146,0.541c-0.974,0.59-1.65,1.062-2.029,1.419c-1.138,0.205-2.501,0.88-4.093,2.02
			c-1.283,0.014-2.69,0.399-4.22,1.155l-5.05,0.059l-1.354-0.514c-8.156-7.345-4.626-17.15,10.591-29.415
			c1.314-0.015,2.479-0.59,3.494-1.724l0.796,0.28L470.271,281.875z M469.953,286.063c-7.032,2.327-11.959,7.322-14.783,14.985
			c2.848-0.802,5.572-2.517,8.174-5.145c3.683-2.094,6.431-5.188,8.248-9.281L469.953,286.063z"/>
		<path fill="#9D706D" d="M494.918,286.929c6.427,1.818,6.941,5.596,1.544,11.333c-1.049,0.302-1.75,0.021-2.1-0.842
			c3.504-7.769,1.797-9.352-5.117-4.75l-0.724,1.308c1.13,4.091,3.472,7.64,7.024,10.644c0.936,1.176,1.422,2.565,1.462,4.169
			l-0.546,0.871c-5.415,2.532-10.014,1.928-13.799-1.813l-1.905-0.844l-0.641-0.425l0.085-1.107
			c0.771-0.457,1.681-0.837,2.729-1.139c2.352,3.18,5.54,4.233,9.562,3.16l-0.977-1.719c-2.173-1.738-3.941-4.203-5.3-7.395
			l-0.848-0.855l0.273-0.437c-0.544-0.443-0.927-1.096-1.147-1.96C485.725,290.306,489.198,287.572,494.918,286.929z"/>
		<path fill="#9D706D" d="M518.235,261.983l1.059-0.012c0.84,0.343,1.138,1.045,0.896,2.106c-1.003,1.423-1.836,3.101-2.494,5.031
			c-0.567,0.712-1.08,1.761-1.536,3.144l-0.921,1.358l-0.847,4.194l-1.298,3.189l0.207,1.056l-0.404,1.543l1.813,0.797
			c1.967-0.566,3.904-0.766,5.812-0.597l1.098-0.541c0.694,0.152,1.734,0.141,3.126-0.036l1.894-0.264
			c-0.199,0.1,0.772-0.022,2.913-0.369c1.409-0.016,2.415,0.661,3.016,2.034l-1.427,1.074l-5.268,0.397l-1.896,0.311l-7.928,0.621
			c-0.525,0.168-1.221,0.255-2.087,0.265l-1.934,0.792l-0.94,6.071l0.2,0.527l-0.319,1.061l-0.14,1.83l-0.75,2.894
			c-0.053,0.707-0.165,1.542-0.333,2.505c-0.169,0.965-0.534,2.604-1.093,4.919c-0.246,0.708-0.464,1.239-0.649,1.597l-1.198,1.841
			l-1.867,0.551l-0.738-1.051c0.65-1.386,1.209-3.685,1.676-6.897c1.013-1.935,1.442-4.217,1.289-6.845
			c0.445-1.223,0.715-2.444,0.807-3.665l0.281-3.706l0.338-1.304c-3.221,1.063-5.171,1.472-5.857,1.223
			c-0.685-0.249-1.225-1.155-1.621-2.723c0.526-0.167,1.097-0.701,1.708-1.607c1.759-0.372,2.978-0.387,3.655-0.042l1.365-0.256
			l0.77-0.01l0.811-0.538l-0.102-1.827l2.794-8.978l0.28-0.532l0.081-1.061c0.207-0.194,0.33-0.548,0.369-1.062
			c0.172-0.162,0.562-0.873,1.171-2.13l0.367-1.063l0.32-1.013l1.257-2.66C516.703,263.606,517.462,262.893,518.235,261.983z"/>
		<path fill="#9D706D" d="M563.339,290.61c0.88,0.214,1.408,0.642,1.585,1.279c-0.327,1.353-0.99,2.69-1.986,4.017l-3.636,8.651
			l0.26,1.006l-0.75,1.021l0.625,0.618c3.725-2.225,7.302-5.682,10.732-10.37l1.45-1.363l-0.162-2.307
			c1.383-0.913,2.965-1.493,4.746-1.738c1.296,0.658,2.107,1.754,2.44,3.291c-4.962,7.145-4.685,12.126,0.836,14.948
			c1.573-0.468,3.362-1.032,5.367-1.696l1.8-0.937l4.152-2.164c1.931-1.37,3.465-2.813,4.605-4.333
			c1.225-1.36,1.604-1.284,1.137,0.228c-0.759,1.965-1.602,3.465-2.528,4.501c-0.929,1.039-2.426,2.289-4.49,3.756l-3.962,2.211
			c-8.708,4.976-14.047,2.936-16.019-6.116c-8.572,8.276-13.563,10.098-14.974,5.465
			C554.224,303.303,557.146,296.646,563.339,290.61z"/>
		<path fill="#9D706D" d="M610.536,284.052c5.082-0.251,7.774,2.235,8.084,7.458c3.211-4.333,5.491-4.616,6.839-0.849
			c-1.403,1.62-3.025,3.979-4.861,7.078c-0.791,0.716-1.514,1.798-2.169,3.249l0.228,0.814c0.869,0.344,1.851,0.509,2.942,0.495
			l1.936-0.841c0.95-0.716,2.281-1.531,3.983-2.45l1.96-1.128l2.38-1.615l1.622-1.126c0.697-0.296,0.866,0.078,0.517,1.125
			c-0.354,1.046-1.464,2.302-3.337,3.767c-5.46,5.675-11.082,7.374-16.868,5.101c-6.615,6.554-12.802,7.428-18.555,2.619
			C593.131,297.514,598.23,289.614,610.536,284.052z M610.029,288.194c-7.688,3.809-11.696,8.922-12.022,15.338l-0.315,1.016
			c3.222,5.221,8.075,4.17,14.558-3.151c-0.284-0.51-0.171-0.928,0.335-1.255c-0.493,0.167-1.064,0.094-1.713-0.221
			C616.077,291.651,615.798,287.742,610.029,288.194z"/>
		<path fill="#9D706D" d="M641.492,292.736l3.173-0.036l0.529,1.245c-0.395,1.416-1.274,2.884-2.639,4.405
			c-0.493,1.002-0.942,2.273-1.348,3.816l-0.221,0.388l-0.674,0.633c-0.085,1.124-0.458,2.25-1.121,3.38
			c-0.209,1.093-0.579,2.348-1.103,3.766l-0.287,1.253l-0.35,1.448l-0.896,3.568l-0.062,0.819l-0.273,1.062l-0.655,2.941
			l-0.273,1.061l-0.285,1.253l-0.846,2.896c-0.352,0.839-0.65,2.028-0.896,3.569l-1.104,3.139l-0.306,1.495l-0.315,1.641
			c-0.332,0.58-0.525,1.224-0.579,1.929l-0.494,0.824l-0.063,0.818l-0.433,0.631c-0.245,1.124-0.757,2.173-1.535,3.145l-0.514,1.688
			c-6.449,7.738-10.543,4.932-12.286-8.419c0.361-1.384,0.62-3.117,0.778-5.205c0.504-1.127,0.955-2.463,1.363-4.007l0.704-1.065
			l4.496-9.864l1.153-1.265l1.872-2.523l2.276-0.218c-0.096,1.251-0.538,2.65-1.328,4.199l-0.049,0.627
			c-0.914,1.101-1.641,2.424-2.174,3.967c-0.47,0.713-0.886,1.553-1.249,2.517l-0.672,0.634l-0.8,2.318l-0.481,0.63
			c-0.063,0.836-0.34,1.752-0.833,2.751l-0.302,1.447l-0.287,0.628c-0.055,0.707-0.241,1.479-0.56,2.315
			c0,1.668,0.259,3.749,0.775,6.244l-0.063,0.817c0.451,1.246,1.258,2.423,2.423,3.532c1.986-2.108,3.519-4.771,4.597-7.989
			l0.415-0.438c0.276-1.51,0.828-3.313,1.661-5.407l0.335-1.253l0.065-0.868l0.479-0.63l0.256-0.82l0.688-3.376
			c0.321-0.838,0.517-1.737,0.59-2.699l0.335-1.256c0.191-0.834,0.332-1.43,0.423-1.784c0.093-0.353,0.193-0.738,0.305-1.158
			c0.112-0.417,0.247-0.836,0.407-1.254c0.191-0.836,0.331-1.815,0.416-2.938c0.351-0.839,0.543-1.467,0.575-1.883l0.541-1.45
			l0.095-1.25l2.416-7.147c0.182-0.707,0.583-1.546,1.201-2.516l0.895-3.569l0.701-1.019l0.096-1.251L641.492,292.736z
			 M649.53,271.625l3.42,4.337c-0.502,1.129-0.959,2.528-1.375,4.2l-0.288,1.255l-0.302,0.82c-1.936,0.183-2.703-1.539-2.299-5.167
			c-0.795-0.536-1.205-1.445-1.235-2.729C647.663,273.249,648.355,272.344,649.53,271.625z M649.723,271.623l3.067,3.282
			C652.948,272.819,651.927,271.726,649.723,271.623z"/>
		<path fill="#9D706D" d="M685.98,284.526l6.037,0.218l0.791-0.296c2.349,1.993,0.749,3.021-4.799,3.085
			c-4.682,0.055-9.316,1.614-13.905,4.683c-0.791,1.547-1.162,3.075-1.117,4.581l-0.899,1.742c0.314,0.51,0.344,1.184,0.087,2.019
			l0.507,0.285c-0.984,1.999-1.162,4.341-0.533,7.027l-0.395,2.024l-0.346,0.773c-1.89,0.856-3.721,0.701-5.491-0.464
			c-0.033-1.668-0.386-3.588-1.053-5.761l-0.146-1.25l-0.246-0.526c-0.373,0.679-0.896,1.021-1.569,1.029
			c-0.456,1.353-1.379,2.55-2.771,3.592c-1.964,3.518-5.115,5.141-9.449,4.87c-0.123-0.51-0.407-1.181-0.857-2.01
			c-0.033-1.666,0.438-3.436,1.411-5.307l-0.104-1.779c0.568-1.16,1.086-2.496,1.554-4.01l0.98-2.802
			c0.492-0.165,1.192-0.511,2.097-1.034c1.455,0.657,2.191,1.915,2.213,3.774c-2.038,2.364-3.088,5.229-3.151,8.599
			c1.929-1.37,3.847-3.411,5.749-6.127c0.361-0.518,0.896-1.021,1.604-1.511l0.298-0.772l1.349-1.266l0.98-2.803
			c0.05-0.673,0.276-1.349,0.68-2.027l0.278-0.483c0.896-0.844,1.927-1.112,3.089-0.807l1.902-2.281l0.329-0.533
			c0.505-0.326,1.014-0.492,1.526-0.499c1.238-0.687,3.321-1.545,6.25-2.572c0.993-0.012,2.104-0.281,3.33-0.809l0.461,0.235
			L685.98,284.526z"/>
		<path fill="#9D706D" d="M700.89,283.007c5.08-0.251,7.775,2.235,8.085,7.458c3.21-4.333,5.49-4.616,6.841-0.849
			c-1.406,1.619-3.026,3.979-4.862,7.078c-0.793,0.715-1.515,1.798-2.17,3.249l0.228,0.814c0.869,0.344,1.852,0.509,2.94,0.496
			l1.938-0.842c0.949-0.716,2.277-1.532,3.982-2.45l1.958-1.129l2.382-1.615l1.623-1.125c0.695-0.297,0.865,0.078,0.516,1.125
			c-0.354,1.046-1.465,2.302-3.336,3.766c-5.462,5.675-11.084,7.375-16.87,5.102c-6.616,6.555-12.799,7.428-18.555,2.619
			C683.484,296.468,688.585,288.569,700.89,283.007z M700.384,287.149c-7.688,3.81-11.695,8.922-12.022,15.338l-0.317,1.014
			c3.224,5.223,8.076,4.172,14.56-3.15c-0.283-0.51-0.171-0.927,0.333-1.254c-0.491,0.168-1.063,0.092-1.712-0.221
			C706.433,290.607,706.153,286.698,700.384,287.149z"/>
		<path fill="#9D706D" d="M745.129,287.593c2.216,0.36,3.143,1.857,2.783,4.49l-4.002,3.989c-0.619,0.971-1.534,1.831-2.742,2.582
			l-0.354,0.87l-0.862,0.586l-0.329,0.533c-0.957,0.396-1.576,1.156-1.854,2.283l-0.559-0.235l-1.056,2.514
			c1.256,0.756,2.926,1.121,5.01,1.098l0.554,0.281l6.827-0.656l1.705-0.308l3.082,0.542l3.944-0.046
			c0.148,0.573,0.097,1.233-0.15,1.974l-3.149,0.324l-1.683,0.019c-0.959,0.396-2.095,0.602-3.409,0.618l-1.195,0.543l-1.664-0.222
			c-0.59,0.168-1.734,0.262-3.433,0.281l-1.705,0.308l-5.388,0.062c-0.709-0.344-1.625-0.51-2.747-0.497
			c-1.097-0.757-2.052-1.883-2.867-3.383l1.431-3.671c1.595-1.173,2.92-2.599,3.978-4.277c1.371-0.787,2.42-1.608,3.143-2.467
			c0.719-0.857,1.582-1.564,2.586-2.123c0.204-0.579,0.145-1.058-0.179-1.44c-1.199,0.593-2.646,1.09-4.342,1.494l-6.219,3.438
			l-0.883,0.876c-0.041,0.546-0.021,1.3,0.068,2.26l-3.944,0.045c-0.487-0.763-0.96-1.896-1.423-3.396l1.589-2.569l0.865-0.01
			c1.604-1.333,3.552-2.285,5.838-2.856c1.021-0.782,2.298-1.374,3.834-1.777l0.601-0.295l2.32-0.845l1.994-0.312l2.283-0.315
			L745.129,287.593z M748.304,269.809c2.213-0.026,3.229,1.164,3.045,3.572c-0.823,2.415-2.631,3.43-5.421,3.046
			c-0.934-0.761-1.437-1.956-1.505-3.592C745.14,271.417,746.433,270.408,748.304,269.809z"/>
		<path fill="#9D706D" d="M761.6,288.317c0.882,0.215,1.41,0.642,1.584,1.28c-0.325,1.351-0.987,2.689-1.986,4.015l-3.634,8.652
			l0.261,1.007l-0.752,1.02l0.627,0.618c3.723-2.225,7.301-5.681,10.732-10.37l1.449-1.362l-0.161-2.308
			c1.382-0.913,2.963-1.493,4.744-1.738c1.294,0.658,2.108,1.754,2.441,3.291c-4.963,7.143-4.685,12.127,0.836,14.947
			c1.573-0.466,3.362-1.031,5.365-1.697l1.801-0.934l4.153-2.164c1.93-1.37,3.464-2.813,4.604-4.335
			c1.225-1.36,1.604-1.285,1.137,0.228c-0.756,1.966-1.599,3.465-2.527,4.503c-0.928,1.037-2.425,2.288-4.489,3.755l-3.963,2.209
			c-8.709,4.977-14.045,2.938-16.018-6.114c-8.572,8.276-13.565,10.098-14.974,5.465C752.484,301.009,755.408,294.354,761.6,288.317
			z"/>
		<path fill="#9D706D" d="M798.903,293.754l0.577-0.007c0.979,0.18,1.72,0.767,2.222,1.755c-0.344,1.99-1.214,4.375-2.608,7.148
			c0.503,1.372,0.783,2.956,0.841,4.75c-4.334,2.232-6.438,1.263-6.314-2.907c0.919-1.583,1.656-3.467,2.207-5.653l0.669-0.585
			l-0.224-1.488C796.957,295.764,797.834,294.76,798.903,293.754z M815.358,271.918c1.557,0.176,2.764,1.156,3.621,2.941
			c-0.105,1.38-0.906,2.866-2.403,4.453l-0.712,1.788l-0.894-0.279C811.95,276.303,812.08,273.336,815.358,271.918z"/>
		<path fill="#9D706D" d="M827.79,277.739c1.285,0.369,2.761,0.545,4.428,0.525l1.623,0.8c0.281,0.927,0.454,2.239,0.518,3.938
			c-5.434,7.854-12.975,14.162-22.625,18.923c0.273,1.473,1.11,2.666,2.516,3.58c1.803,0.716,3.768,0.597,5.889-0.357l0.556,0.282
			l4.593-2.266l0.908-0.588l1.746-0.839l0.861-0.585l2.958-2.248c1.165-0.592,2.527-1.44,4.084-2.549
			c1.031-0.91,2.078-1.643,3.146-2.2c1.764-0.854,2.362-0.509,1.796,1.036l-2.525,2.868c-2.202,2.014-3.981,3.317-5.341,3.908
			l-3.557,2.544c-0.175,0.193-0.557,0.374-1.145,0.541c-0.975,0.59-1.651,1.062-2.03,1.419c-1.137,0.206-2.501,0.879-4.094,2.019
			c-1.283,0.017-2.69,0.402-4.22,1.156l-5.05,0.059l-1.354-0.514c-8.157-7.344-4.625-17.148,10.591-29.413
			c1.315-0.017,2.479-0.592,3.494-1.725l0.796,0.278L827.79,277.739z M827.474,281.928c-7.031,2.327-11.96,7.321-14.784,14.986
			c2.85-0.803,5.572-2.519,8.176-5.146c3.682-2.096,6.432-5.189,8.247-9.283L827.474,281.928z"/>
		<path fill="#9D706D" d="M845.665,290.375l3.173-0.036l0.529,1.244c-0.395,1.416-1.274,2.884-2.64,4.406
			c-0.492,1.002-0.941,2.273-1.346,3.815l-0.221,0.388l-0.674,0.634c-0.086,1.124-0.459,2.25-1.122,3.38
			c-0.211,1.093-0.578,2.348-1.102,3.764l-0.287,1.255l-0.351,1.447l-0.895,3.568l-0.062,0.819l-0.274,1.062l-0.654,2.941
			l-0.273,1.061l-0.287,1.254l-0.844,2.896c-0.353,0.839-0.651,2.029-0.896,3.569l-1.104,3.14l-0.306,1.495l-0.317,1.64
			c-0.332,0.58-0.523,1.225-0.577,1.93l-0.496,0.824l-0.063,0.818l-0.432,0.63c-0.244,1.125-0.758,2.174-1.535,3.144l-0.514,1.69
			c-6.448,7.738-10.545,4.932-12.287-8.42c0.362-1.383,0.622-3.117,0.78-5.204c0.503-1.127,0.955-2.463,1.361-4.007l0.704-1.066
			l4.497-9.863l1.153-1.265l1.873-2.523l2.274-0.219c-0.095,1.251-0.537,2.651-1.327,4.199l-0.05,0.627
			c-0.915,1.102-1.639,2.424-2.172,3.969c-0.472,0.711-0.887,1.551-1.249,2.515l-0.672,0.635l-0.801,2.317l-0.48,0.632
			c-0.063,0.833-0.341,1.751-0.833,2.749l-0.302,1.447l-0.29,0.629c-0.053,0.707-0.239,1.478-0.558,2.314
			c0,1.668,0.258,3.75,0.775,6.245l-0.063,0.817c0.452,1.245,1.258,2.422,2.424,3.532c1.985-2.109,3.517-4.771,4.594-7.989
			l0.418-0.438c0.274-1.51,0.827-3.312,1.659-5.406l0.337-1.254l0.065-0.867l0.479-0.631l0.255-0.819l0.688-3.375
			c0.321-0.839,0.517-1.738,0.59-2.701l0.335-1.255c0.192-0.835,0.332-1.43,0.424-1.784c0.091-0.354,0.192-0.739,0.305-1.158
			c0.111-0.418,0.246-0.836,0.407-1.255c0.19-0.835,0.328-1.815,0.415-2.938c0.351-0.838,0.542-1.465,0.575-1.883l0.542-1.45
			l0.095-1.25l2.415-7.146c0.182-0.707,0.582-1.547,1.2-2.516l0.896-3.57l0.701-1.018l0.096-1.252L845.665,290.375z
			 M853.704,269.264l3.418,4.336c-0.5,1.129-0.959,2.529-1.376,4.201l-0.286,1.254l-0.302,0.82
			c-1.937,0.185-2.703-1.539-2.299-5.166c-0.795-0.536-1.205-1.445-1.235-2.729C851.835,270.888,852.527,269.982,853.704,269.264z
			 M853.896,269.262l3.067,3.282C857.121,270.458,856.1,269.363,853.896,269.262z"/>
		<path fill="#9D706D" d="M869.699,282.595c6.428,1.816,6.943,5.596,1.545,11.332c-1.051,0.301-1.75,0.021-2.102-0.842
			c3.505-7.769,1.798-9.352-5.116-4.75l-0.724,1.307c1.131,4.092,3.472,7.64,7.024,10.645c0.936,1.177,1.421,2.565,1.463,4.169
			l-0.548,0.872c-5.414,2.531-10.013,1.928-13.798-1.813l-1.905-0.844l-0.641-0.424l0.085-1.108
			c0.771-0.458,1.681-0.838,2.729-1.139c2.354,3.18,5.541,4.233,9.562,3.161l-0.976-1.721c-2.174-1.738-3.939-4.202-5.3-7.394
			l-0.848-0.855l0.272-0.437c-0.543-0.443-0.926-1.096-1.147-1.96C860.505,285.971,863.979,283.236,869.699,282.595z"/>
		<path fill="#9D706D" d="M896.26,285.846c2.215,0.358,3.144,1.856,2.784,4.487l-4.003,3.991c-0.619,0.972-1.533,1.831-2.743,2.583
			l-0.354,0.869l-0.861,0.587l-0.329,0.532c-0.959,0.396-1.577,1.157-1.854,2.283l-0.56-0.234l-1.056,2.512
			c1.255,0.757,2.924,1.122,5.01,1.098l0.556,0.282l6.826-0.657l1.704-0.307l3.081,0.542l3.944-0.047
			c0.148,0.575,0.098,1.233-0.149,1.974l-3.149,0.324l-1.684,0.021c-0.958,0.396-2.094,0.601-3.408,0.617l-1.195,0.544l-1.665-0.223
			c-0.59,0.168-1.733,0.261-3.432,0.281l-1.705,0.309l-5.387,0.061c-0.711-0.345-1.628-0.51-2.75-0.496
			c-1.095-0.757-2.052-1.884-2.865-3.383l1.431-3.672c1.595-1.173,2.921-2.598,3.976-4.279c1.374-0.785,2.421-1.606,3.143-2.464
			c0.722-0.858,1.583-1.564,2.588-2.122c0.204-0.58,0.145-1.061-0.179-1.442c-1.199,0.592-2.646,1.089-4.343,1.494l-6.219,3.438
			l-0.883,0.876c-0.043,0.546-0.019,1.299,0.068,2.26l-3.944,0.045c-0.486-0.763-0.959-1.896-1.424-3.397l1.589-2.567l0.865-0.011
			c1.605-1.333,3.553-2.285,5.839-2.857c1.021-0.782,2.299-1.374,3.835-1.776l0.599-0.295l2.322-0.844l1.994-0.313l2.282-0.316
			L896.26,285.846z"/>
		<path fill="#9D706D" d="M938.755,284.296l1.762,0.221c0.634,0.505,1.072,1.271,1.315,2.293c-0.249,1.158-0.767,2.51-1.558,4.059
			l-0.371,1.736l-0.801,2.317c-1.095,3.026-2.221,6.038-3.377,9.033l-1.629,5.021l-2.973,9.413l-5.122,20.646
			c-0.813,3.119-1.48,5.573-2,7.359c-0.52,1.785-1.124,4.061-1.814,6.825l-0.642,1.499c-1.187,0.014-1.969-0.65-2.348-1.992
			l1.467-7.955l1.548-7.087l0.615-3.037c0.431-1.031,1.448-4.538,3.056-10.521l0.597-2.797l1.039-3.571
			c0.359-1.35,1.74-5.647,4.15-12.89l1.221-2.804l0.317-1.013l0.316-1.016c0.494-1.865,1.135-3.555,1.923-5.073l0.059-0.77
			l0.858-1.79l0.969-2.656l-0.46-0.284c-2.715,1.156-7.078,4.204-13.09,9.146l-0.281,0.533c-1.634,1.686-3.675,3.058-6.125,4.111
			l-0.277,0.484c-4.444,0.724-6.266-1.852-5.468-7.729c-0.961,1.679-2.349,3.281-4.162,4.811l-1.403,2.036
			c-0.898,0.877-1.737,1.992-2.512,3.348l-0.326,0.485c-0.711,0.521-1.354,1.202-1.934,2.042l-1.747,0.261
			c-0.157-0.479-0.105-1.153,0.153-2.022c0.532-0.679,1.091-1.519,1.681-2.52l0.827-0.78l3.999-5.866l0.296-0.724l2.195-2.334
			l0.54-0.776c0.429-0.999,1.018-2.016,1.769-3.051l0.277-0.483c0.872-0.523,1.787-1.385,2.742-2.581l0.559-1.018
			c1.357-0.176,2.511,0.243,3.46,1.259c-0.307,1.511-0.96,3.363-1.959,5.554c0.058,1.348-0.313,2.875-1.117,4.583l0.395,1.773
			c0.829,0.058,1.954-0.422,3.375-1.433l4.569-3.854l10.465-8.104l1.595-0.74l0.52-0.534l2.367-0.798L938.755,284.296z"/>
	</g>
	<path fill="#F16823" d="M270.218,107.554c-3.759,4.093-8.67,7.209-14.261,8.887c0.328,3.49,0.503,7.023,0.503,10.6
		c0,61.743-50.053,111.796-111.795,111.796c-11.649,0-22.881-1.784-33.44-5.09c-5.432,2.777-11.579,4.354-18.099,4.354
		c-5.484,0-10.709-1.109-15.464-3.114c19.452,12.1,42.409,19.096,67.003,19.096c70.162,0,127.04-56.878,127.04-127.041
		C271.705,120.413,271.196,113.905,270.218,107.554z"/>
	<path fill="#F16823" d="M218.603,43.2c0.994-3.279,1.535-6.756,1.535-10.361c0-3.033-0.382-5.977-1.094-8.787
		C198.135,8.925,172.444,0,144.665,0C74.502,0,17.625,56.878,17.625,127.04c0,5.441,0.354,10.798,1.018,16.059l14.662-6.275
		c-0.28-3.225-0.435-6.485-0.435-9.783c0-6.872,0.624-13.599,1.811-20.129c-0.662-0.886-1.286-1.838-1.86-2.85
		c-4.635-8.18-4.248-17.16,0.867-20.059c2.225-1.262,4.979-1.16,7.761,0.027C58.3,43.638,98.165,15.245,144.665,15.245
		C173.017,15.245,198.896,25.808,218.603,43.2z"/>
	<g>
		<path fill="#F16823" d="M342.013,190.343h52.629v-23.752c-0.043-5.083-0.313-8.834-0.813-11.251
			c-0.834-4.208-3.25-7.167-7.25-8.876c-2.042-0.832-4.542-1.313-7.5-1.438v-1.75h47.315v1.75
			c-5.584,0.168-9.709,1.896-12.375,5.188c-1.542,2.084-2.5,4.896-2.876,8.438c-0.209,2.042-0.313,4.688-0.313,7.938v54.629
			c0.042,5.043,0.313,8.771,0.813,11.188c1.541,6.75,6.458,10.188,14.75,10.313v1.75h-47.315v-1.75
			c5.583-0.125,9.708-1.854,12.375-5.188c1.583-2.042,2.542-4.854,2.876-8.438c0.208-1.958,0.313-4.584,0.313-7.876v-27.314h-52.629
			v27.314c0.041,5.043,0.313,8.771,0.813,11.188c0.833,4.208,3.25,7.166,7.25,8.875c2.083,0.834,4.604,1.313,7.563,1.438v1.75
			h-47.379v-1.75c5.583-0.125,9.709-1.854,12.376-5.188c1.583-2.084,2.541-4.896,2.875-8.438c0.208-1.958,0.313-4.584,0.313-7.876
			v-54.629c-0.042-5.083-0.313-8.834-0.813-11.251c-1.542-6.751-6.46-10.188-14.751-10.313v-1.75h47.316v1.75
			c-5.584,0.125-9.709,1.855-12.375,5.188c-1.542,2.084-2.5,4.896-2.875,8.438c-0.209,2.167-0.313,4.813-0.313,7.938V190.343z"/>
		<path fill="#F16823" d="M547.081,244.472H498.39v-1.75c4.334-0.334,7.396-1.063,9.188-2.188c3.083-1.96,4.625-4.563,4.625-7.813
			c0-2.21-1.104-6.001-3.313-11.376l-7.126-17.563h-32.627l-3.813,10.25c-3.459,8.46-5.188,14.273-5.188,17.439
			c0,4.208,1.729,7.333,5.188,9.376c1.833,1.082,4.063,1.707,6.688,1.875v1.75h-33.19v-1.75c4.958,0,9.396-2.729,13.314-8.188
			c1.916-2.709,3.666-5.938,5.25-9.688c1.291-3.041,2.875-6.938,4.75-11.688l27.064-69.88h4.251l32.189,77.881
			c3.751,9.209,6.938,15.064,9.563,17.564c2.251,2.125,6.208,3.458,11.876,4V244.472z M500.577,200.718l-15.563-38.377
			l-14.626,38.377H500.577z"/>
		<path fill="#F16823" d="M644.461,143.276l0.938,32.253l-1.751,0.124c-6.625-21.667-17.46-32.502-32.502-32.502
			c-9.334,0-16.938,3.313-22.813,9.938c-5.293,5.96-9.313,13.272-12.063,21.938c-2.126,6.668-3.188,13.731-3.188,21.189
			c0,12.376,2.917,23.169,8.751,32.377c3.25,5.167,7.104,9.115,11.563,11.846c4.458,2.729,9.292,4.094,14.501,4.094
			c7.25,0,13.104-2.522,17.563-7.563c3.667-4.084,5.5-9.125,5.5-15.126c0-6.334-2.438-10.459-7.313-12.376
			c-2.125-0.833-5.376-1.291-9.751-1.375v-1.688h47.254v1.688c-3.625,0.375-6.293,0.854-8.001,1.438
			c-3.625,1.251-5.668,4.313-6.125,9.188c-0.209,2.459-0.313,5.271-0.313,8.438c0,1.833,0.145,5.146,0.438,9.938
			c-1.835-0.71-3.209-1.063-4.126-1.063c-1.084,0-2.459,0.583-4.124,1.751c-8.918,6.125-19.962,9.188-33.128,9.188
			c-7.918,0-15.168-1.25-21.752-3.75c-6.585-2.501-12.043-6.085-16.376-10.751c-4.001-4.251-7.022-9.292-9.063-15.126
			c-2.292-6.584-3.438-13.459-3.438-20.627c0-7.876,1.281-15.323,3.844-22.345c2.563-7.021,6.198-12.991,10.907-17.908
			c5.291-5.583,11.792-9.751,19.501-12.501c6.126-2.166,12.604-3.25,19.439-3.25c5.291,0,10.209,0.688,14.751,2.063
			c2.208,0.667,6.042,2.209,11.501,4.625c1.083,0.5,2.063,0.75,2.938,0.75c2,0,3.521-1.625,4.563-4.875H644.461z"/>
		<path fill="#F16823" d="M707.83,194.905v26.252c0.041,5.043,0.313,8.771,0.813,11.188c0.833,4.208,3.251,7.188,7.251,8.938
			c2.082,0.834,4.604,1.313,7.563,1.438v1.75h-47.379v-1.75c5.584-0.125,9.709-1.854,12.376-5.188
			c1.583-2.084,2.542-4.917,2.875-8.5c0.209-1.958,0.313-4.584,0.313-7.876v-54.566c-0.042-5.083-0.313-8.834-0.812-11.251
			c-1.542-6.751-6.459-10.188-14.752-10.313v-1.75h35.69c8.042,0,13.729,0.167,17.063,0.5c9.792,0.918,16.939,3.668,21.439,8.251
			c4.5,4.542,6.75,10.21,6.75,17.001c0,8.376-3.375,14.876-10.125,19.501c-3,2.001-7.397,3.647-13.188,4.938
			c3.333,1.334,5.813,2.875,7.438,4.625c1.583,1.834,3.771,5.625,6.563,11.376c5.958,12.293,9.876,20.001,11.751,23.126
			c2.75,4.709,5.104,7.605,7.063,8.688c1.415,0.792,3.146,1.271,5.188,1.438v1.75h-24.627c-1.334-2.917-3.834-8.585-7.501-17.001
			c-7.209-15.96-12.918-25.606-17.126-28.94c-2.792-2.458-6.459-3.666-11.001-3.625H707.83z M707.83,193.28h2.876
			c5.707,0,9.854-0.291,12.438-0.875c5.041-1.125,9.209-4.416,12.501-9.876c2.291-3.875,3.438-8.188,3.438-12.938
			c0-5.375-1.354-10.166-4.063-14.376c-3.043-4.751-7.105-7.646-12.188-8.688c-2.959-0.625-6.938-0.938-11.938-0.938h-3.063V193.28z
			"/>
		<path fill="#F16823" d="M831.954,242.722v1.75h-47.378v-1.75c5.5-0.125,9.626-1.854,12.376-5.188
			c1.583-2.084,2.541-4.896,2.875-8.438c0.208-1.958,0.313-4.604,0.313-7.938v-54.566c-0.042-5.083-0.313-8.834-0.813-11.251
			c-1.542-6.751-6.459-10.188-14.75-10.313v-1.75h47.315v1.75c-5.584,0.168-9.71,1.896-12.376,5.188
			c-1.542,2.042-2.479,4.854-2.813,8.438c-0.25,2.376-0.375,5.022-0.375,7.938v54.566c0,4.667,0.229,8.178,0.688,10.532
			c0.458,2.354,1.291,4.302,2.5,5.844C822.266,240.867,826.412,242.597,831.954,242.722z"/>
		<path fill="#F16823" d="M935.395,142.776l0.938,33.128h-1.751c-0.499-1.375-0.896-2.459-1.188-3.25
			c-2.667-7.251-4.854-12.188-6.563-14.813c-6.46-9.793-14.688-14.689-24.689-14.689c-5.5,0-10.429,1.271-14.782,3.813
			c-4.355,2.543-8.303,6.48-11.844,11.814c-6.543,9.834-9.814,21.563-9.814,35.189c0,14.043,3.042,25.336,9.126,33.878
			c6.876,9.626,16.668,14.438,29.377,14.438c7.501,0,13.917-1.688,19.252-5.063c6.375-4.084,10.563-11.666,12.563-22.751l1.75,0.313
			c-1,7.834-3.126,14.042-6.376,18.626c-6.542,9.042-17.335,13.563-32.377,13.563c-16.126,0-28.836-4.896-38.128-14.689
			c-8.751-9.208-13.126-21.396-13.126-36.564c0-11.209,2.479-21.251,7.438-30.127c4.917-8.875,12.354-15.479,22.313-19.814
			c7.667-3.375,15.604-5.063,23.814-5.063c5,0,10.084,0.75,15.251,2.25c1.209,0.375,4.416,1.438,9.626,3.188
			c1.208,0.418,2.291,0.625,3.25,0.625c1.709,0,3.126-1.333,4.25-4H935.395z"/>
	</g>
	<g>
		<path fill="#9B6B67" d="M312.415,32.646h43.101v1.617c-4.16,0.039-6.914,0.328-8.262,0.867c-1.31,0.577-2.331,1.502-3.062,2.772
			c-0.732,1.271-1.098,2.581-1.098,3.929c0,1.695,0.52,3.891,1.561,6.586c0.192,0.502,1.001,2.408,2.427,5.721l21.319,52.113
			l14.848-44.892c1.926-5.778,2.889-10.071,2.889-12.884c0-2.35-0.453-4.594-1.358-6.73c-0.905-2.139-2.129-3.804-3.668-4.998
			c-2.003-1.617-5.008-2.445-9.013-2.484v-1.617h44.025v1.617c-4.43-0.038-7.511,0.443-9.244,1.444
			c-1.349,0.771-2.447,1.917-3.293,3.438c-0.848,1.522-1.271,3.11-1.271,4.767c0,1.849,0.636,4.795,1.907,8.84l16.871,54.309
			l18.835-46.221c2.889-7.049,4.333-12.633,4.333-16.754c0-4.198-1.561-7.088-4.68-8.667c-1.502-0.771-3.755-1.155-6.76-1.155
			v-1.617h31.661v1.617c-3.582,0.309-6.278,1.137-8.089,2.484c-2.273,1.656-4.737,5.199-7.395,10.631
			c-1.002,1.887-2.582,5.412-4.737,10.572l-28.137,68.233h-2.831L388.91,53.213l-24.729,72.971h-3.12l-30.621-73.722
			c-2.08-5.084-3.583-8.57-4.507-10.457c-1.58-3.158-3.679-5.277-6.297-6.355c-1.733-0.693-4.141-1.156-7.222-1.387V32.646z"/>
		<path fill="#9B6B67" d="M489.106,46.974c5.932,0,11.748,1.695,17.449,5.084c5.546,3.313,9.763,7.742,12.651,13.288
			c2.466,4.7,3.698,9.591,3.698,14.675c0,4.275-0.887,8.475-2.658,12.596s-4.256,7.723-7.453,10.804
			c-3.351,3.235-7.337,5.739-11.959,7.511c-4.275,1.617-8.608,2.427-13,2.427c-4.545,0-8.994-0.866-13.346-2.6
			c-4.353-1.733-8.108-4.122-11.266-7.165c-3.043-2.965-5.402-6.471-7.078-10.515c-1.675-4.044-2.513-8.204-2.513-12.479
			c0-4.66,0.962-9.109,2.889-13.346c1.925-4.237,4.622-7.877,8.088-10.92C471.774,50.093,479.939,46.974,489.106,46.974z
			 M487.894,48.938c-6.818,0-12.211,2.928-16.177,8.782c-4.391,6.471-6.587,14.27-6.587,23.398c0,8.166,2.118,15.177,6.355,21.031
			c4.429,6.162,10.034,9.244,16.813,9.244c6.778,0,12.383-3.082,16.813-9.244c4.236-5.854,6.355-12.846,6.355-20.973
			c0-9.321-2.195-17.141-6.586-23.457c-2.234-3.236-4.834-5.566-7.801-6.991C494.614,49.535,491.552,48.938,487.894,48.938z"/>
		<path fill="#9B6B67" d="M533.363,48.821h51.13v1.387l-41.077,59.395h15.946c9.513-0.077,16.138-1.541,19.875-4.392
			c2.85-2.08,5.084-5.142,6.701-9.187c0.5-1.348,0.905-2.889,1.213-4.621h1.445l-1.445,20.105h-56.215v-1.387l41.425-59.394H557.86
			c-4.738,0-8.532,0.366-11.383,1.099c-4.468,1.154-7.896,3.465-10.283,6.932c-1.387,2.08-2.216,4.469-2.484,7.164h-1.445
			L533.363,48.821z"/>
		<path fill="#9B6B67" d="M651.282,95.62V68.64c-0.039-5.316-0.115-8.705-0.23-10.169c-0.346-3.428-1.888-5.739-4.622-6.934
			c-1.232-0.538-2.87-0.981-4.91-1.329v-1.387h22.243v1.387c-2.697,0.309-4.623,0.81-5.777,1.503
			c-2.428,1.502-3.813,4.333-4.16,8.493c-0.115,0.654-0.193,3.621-0.232,8.896v42.408h-2.367l-44.487-53.5v33.683
			c0.038,5.315,0.115,8.705,0.23,10.169c0.347,3.428,1.888,5.739,4.622,6.933c1.193,0.501,2.831,0.944,4.91,1.329v1.387h-22.242
			v-1.387c2.734-0.347,4.66-0.848,5.777-1.502c2.426-1.541,3.813-4.371,4.159-8.493c0.116-0.616,0.192-3.583,0.231-8.897V69.101
			c-0.078-5.854-0.193-9.128-0.347-9.821c-0.425-3.966-1.984-6.605-4.68-7.915c-1.155-0.5-2.87-0.886-5.142-1.156v-1.387h18.431
			L651.282,95.62z"/>
		<path fill="#9B6B67" d="M679.882,91.229V69.101c-0.077-5.854-0.193-9.128-0.346-9.821c-0.426-3.966-1.984-6.605-4.682-7.915
			c-1.154-0.5-2.869-0.886-5.142-1.156v-1.387h30.217v1.387c-4.083,0.656-6.798,2.022-8.146,4.103
			c-0.963,1.58-1.483,3.968-1.56,7.164c0,0.887-0.021,3.274-0.059,7.165v23.052c0.038,5.315,0.117,8.705,0.232,10.169
			c0.346,3.428,1.886,5.739,4.621,6.933c1.193,0.501,2.832,0.944,4.911,1.329v1.387h-30.217v-1.387
			c2.735-0.347,4.66-0.848,5.777-1.502c2.427-1.541,3.813-4.371,4.161-8.493C679.767,99.511,679.843,96.544,679.882,91.229z"/>
		<path fill="#9B6B67" d="M758.457,48.821l0.751,15.543h-1.388c-0.539-4.276-2.252-7.686-5.141-10.227
			c-1.889-1.541-4.199-2.543-6.935-3.005c-1.694-0.269-3.87-0.404-6.528-0.404h-12.075v26.866h3.467c3.235,0,5.547-0.25,6.934-0.752
			c1.618-0.577,2.831-1.617,3.64-3.119s1.406-3.852,1.791-7.049h1.387l-0.174,24.901H742.8c-0.386-3.851-1.368-6.798-2.946-8.84
			c-1.695-2.118-4.835-3.196-9.418-3.235h-3.294v10.168c0,7.049,0.521,11.633,1.56,13.751c1.157,2.389,2.87,4.044,5.143,4.969
			c2.003,0.809,4.796,1.214,8.378,1.214c5.469,0,9.513-0.713,12.133-2.139c3.12-1.694,5.469-4.583,7.049-8.666
			c0.539-1.387,1.098-3.351,1.675-5.893h1.388l-0.636,18.604h-57.141v-1.387c2.735-0.347,4.66-0.848,5.777-1.502
			c2.427-1.541,3.813-4.371,4.161-8.493c0.115-0.616,0.191-3.583,0.23-8.897V69.101c-0.077-5.854-0.194-9.128-0.347-9.821
			c-0.424-3.966-1.984-6.605-4.681-7.915c-1.155-0.5-2.869-0.886-5.142-1.156v-1.387H758.457z"/>
		<path fill="#9B6B67" d="M827.672,48.533l0.577,20.856h-1.386c-0.386-0.885-0.675-1.617-0.867-2.195
			c-1.695-4.544-3.101-7.606-4.217-9.186c-4.123-6.047-9.36-9.071-15.716-9.071c-6.817,0-12.441,3.198-16.87,9.591
			c-4.16,6.086-6.239,13.346-6.239,21.781c0,8.629,1.925,15.562,5.777,20.799c4.353,5.933,10.553,8.898,18.604,8.898
			c3.929,0,7.376-0.693,10.342-2.08c2.965-1.387,5.237-3.37,6.817-5.951c1.349-2.195,2.426-5.315,3.235-9.359l1.388,0.23
			c-1.58,13.674-9.92,20.511-25.019,20.511c-10.283,0-18.392-3.081-24.322-9.244c-5.547-5.739-8.32-13.327-8.32-22.764
			c0-5.046,0.847-9.793,2.542-14.241c1.694-4.449,4.082-8.137,7.164-11.064c3.082-3.004,7.01-5.315,11.786-6.934
			c4.082-1.424,8.281-2.137,12.595-2.137c3.313,0,6.625,0.5,9.938,1.502c0.771,0.23,2.869,0.924,6.298,2.08
			c0.73,0.27,1.386,0.404,1.964,0.404c0.962,0,1.811-0.809,2.542-2.427H827.672z"/>
		<path fill="#9B6B67" d="M857.138,79.501l20.741-19.239c1.078-1.001,2.1-2.06,3.062-3.178c0.771-0.962,1.156-1.926,1.156-2.89
			c0-2.58-2.003-3.908-6.008-3.986v-1.387h20.104v1.387c-2.041,0.039-4.159,0.81-6.355,2.312c-1.002,0.771-3.042,2.601-6.124,5.489
			l-14.731,13.865l21.029,26.75c3.158,4.084,5.738,6.896,7.742,8.436c2.618,1.772,5.18,2.793,7.684,3.063v1.387h-30.563v-1.387
			c4.275-0.347,6.413-1.561,6.413-3.641c0-1.232-0.752-2.926-2.254-5.084c-1.271-1.81-3.679-5.006-7.222-9.59l-10.283-13.347
			l-4.392,3.986v9.244c0.038,5.315,0.115,8.705,0.23,10.169c0.348,3.428,1.888,5.739,4.622,6.933
			c1.194,0.501,2.831,0.944,4.911,1.329v1.387h-30.217v-1.387c2.734-0.347,4.66-0.848,5.778-1.502
			c2.426-1.541,3.813-4.371,4.159-8.493c0.115-0.616,0.192-3.583,0.231-8.897V69.101c-0.078-5.854-0.193-9.128-0.347-9.821
			c-0.425-3.966-1.984-6.605-4.68-7.915c-1.155-0.5-2.87-0.886-5.143-1.156v-1.387h30.217v1.387
			c-4.083,0.656-6.799,2.022-8.146,4.103c-0.964,1.58-1.483,3.968-1.562,7.164c0,0.887-0.019,3.274-0.057,7.165V79.501z"/>
		<path fill="#9B6B67" d="M916.705,91.229V69.101c-0.079-5.854-0.194-9.128-0.348-9.821c-0.424-3.966-1.983-6.605-4.68-7.915
			c-1.155-0.5-2.87-0.886-5.143-1.156v-1.387h30.218v1.387c-4.084,0.656-6.799,2.022-8.146,4.103
			c-0.964,1.58-1.483,3.968-1.561,7.164c0,0.887-0.02,3.274-0.058,7.165v23.052c0.038,5.315,0.115,8.705,0.23,10.169
			c0.348,3.428,1.888,5.739,4.622,6.933c1.194,0.501,2.832,0.944,4.912,1.329v1.387h-30.218v-1.387
			c2.734-0.347,4.661-0.848,5.778-1.502c2.427-1.541,3.813-4.371,4.159-8.493C916.589,99.511,916.665,96.544,916.705,91.229z"/>
	</g>
	<path fill="#9B6B67" d="M573.292,22.425c-0.602-0.562-1.409-0.842-2.423-0.842c-0.979,0-1.88,0.28-2.706,0.842
		c-1.992,1.313-4.002,3.447-6.032,6.405l-6.894,9.919h1.347l13.045-8.908c1.991-1.348,3.25-2.414,3.776-3.201
		c0.525-0.787,0.789-1.536,0.789-2.248C574.194,23.644,573.893,22.987,573.292,22.425z"/>
</g>
</svg>
